# xmcd CD database file
#
# Track frame offsets:
#	150
#	12266
#	24806
#	38596
#	50961
#	64141
#	79865
#	92862
#	105246
#	116299
#	129920
#	143048
#	157703
#	169795
#	183370
#	197065
#	212463
#	223925
#	233850
#	246805
#	262102
#	269976
#	285841
#	295515
#	310957
#
# Disc length: 4344 seconds
#
# Revision: 0
# Processed by: cddbd v1.5.2PL0 Copyright (c) Steve Scherf et al.
# Submitted via: CDex 1.51
#
DISCID=5c10f619
DTITLE=Pee Wee Crayton - Rockin' The Blues - The Modern Masters 1948-1960
DYEAR=1900
DGENRE=Blues
TTITLE0=Poppa Stoppa
TTITLE1=Brand New Woman
TTITLE2=When Darkness Falls
TTITLE3=Austin Boogie
TTITLE4=Rosa Lee
TTITLE5=When A Man Has The Blues
TTITLE6=The Bop Hop
TTITLE7=Old Fashioned Baby
TTITLE8=I'm Still In Love With You
TTITLE9=Long After Hours
TTITLE10=Black Gal
TTITLE11=Thinking Of You
TTITLE12=Boogie Woogie Upstairs
TTITLE13=My Everything
TTITLE14=Answer To Blues After Hours
TTITLE15=Miserable Old Feeling
TTITLE16=Cool Evening
TTITLE17=Have You Lost Your Love For Me
TTITLE18=From Blues To Boogie
TTITLE19=Louella Brown
TTITLE20=Money Is All We Need
TTITLE21=Mistreated So Bad
TTITLE22=All Or Nothing At All
TTITLE23=Mojo's Blues
TTITLE24=Need Your Love So Bad
EXTD=
EXTT0=
EXTT1=
EXTT2=
EXTT3=
EXTT4=
EXTT5=
EXTT6=
EXTT7=
EXTT8=
EXTT9=
EXTT10=
EXTT11=
EXTT12=
EXTT13=
EXTT14=
EXTT15=
EXTT16=
EXTT17=
EXTT18=
EXTT19=
EXTT20=
EXTT21=
EXTT22=
EXTT23=
EXTT24=
PLAYORDER=
